{"nbformat":4,"nbformat_minor":0,"metadata":{"colab":{"provenance":[],"toc_visible":true,"authorship_tag":"ABX9TyN2fxqQNnT16XtQicrwk4mN"},"kernelspec":{"name":"python3","display_name":"Python 3"},"language_info":{"name":"python"}},"cells":[{"cell_type":"code","execution_count":null,"metadata":{"colab":{"base_uri":"https://localhost:8080/"},"id":"18mFxBzzDy-5","executionInfo":{"status":"ok","timestamp":1651345237129,"user_tz":-120,"elapsed":21610,"user":{"displayName":"ALEJANDRO PARRADO ARRIBAS","userId":"13133033018119253838"}},"outputId":"a0b0fc33-644e-4417-b82f-cacbe3568612"},"outputs":[{"output_type":"stream","name":"stdout","text":["Mounted at /content/gdrive\n"]}],"source":["from google.colab import drive\n","drive.mount('/content/gdrive')"]},{"cell_type":"code","source":["%cd /content/gdrive/MyDrive/VIDEOS"],"metadata":{"colab":{"base_uri":"https://localhost:8080/"},"id":"Dghh2qerETnD","executionInfo":{"status":"ok","timestamp":1651345237131,"user_tz":-120,"elapsed":14,"user":{"displayName":"ALEJANDRO PARRADO ARRIBAS","userId":"13133033018119253838"}},"outputId":"5b032acb-91ab-4959-9523-d6b6ec1e7514"},"execution_count":null,"outputs":[{"output_type":"stream","name":"stdout","text":["/content/gdrive/MyDrive/VIDEOS\n"]}]},{"cell_type":"code","source":["!ls"],"metadata":{"colab":{"base_uri":"https://localhost:8080/"},"id":"y81LFXZMEgHI","executionInfo":{"status":"ok","timestamp":1651345290287,"user_tz":-120,"elapsed":330,"user":{"displayName":"ALEJANDRO PARRADO ARRIBAS","userId":"13133033018119253838"}},"outputId":"372cd337-6c94-4176-ca60-20da6218e5b7"},"execution_count":null,"outputs":[{"output_type":"stream","name":"stdout","text":[" FHD0002.MOV   FHD0011.MOV\t   FHD0023.MOV\t  GOPR0511.MP4\n"," FHD0003.MOV   FHD0012.MOV\t   FHD0024.MOV\t  GP010508.MP4\n"," FHD0004.MOV   FHD0014.MOV\t   FHD0025.MOV\t  join_videos.ipynb\n"," FHD0005.MOV   FHD0016.MOV\t   FHD0026.MOV\t  mylist.txt\n"," FHD0006.MOV  'FHD0021b_(1).MOV'   FHD0027.MOV\t  nv-codec-headers\n"," FHD0007.MOV  'FHD0021b_(2).MOV'   FHD0028.MOV\t  output.mp4\n"," FHD0008.MOV  'FHD0021b_(3).MOV'   GOPR0508.MP4   rapida.mp4\n"," FHD0009.MOV   FHD0021.MOV\t   GOPR0509.MP4\n"," FHD0010.MOV   FHD0022.MOV\t   GOPR0510.MP4\n"]}]},{"cell_type":"code","source":["#Create File List\n","!echo file FHD0021b_3.MOV >  mylist.txt\n","!echo file FHD0025.MOV >> mylist.txt\n","#!echo file \"nextvideo\" >> mylist.txt\n","\n","#Concatenate Files\n","!ffmpeg -f concat -i mylist.txt -c copy carrera_Burgueno.mp4"],"metadata":{"colab":{"base_uri":"https://localhost:8080/"},"id":"a0ti3r58D4jg","executionInfo":{"status":"ok","timestamp":1651346085591,"user_tz":-120,"elapsed":69344,"user":{"displayName":"ALEJANDRO PARRADO ARRIBAS","userId":"13133033018119253838"}},"outputId":"19accf94-9074-4a91-ccbc-2ee7db97a48a"},"execution_count":null,"outputs":[{"output_type":"stream","name":"stdout","text":["ffmpeg version 3.4.8-0ubuntu0.2 Copyright (c) 2000-2020 the FFmpeg developers\n","  built with gcc 7 (Ubuntu 7.5.0-3ubuntu1~18.04)\n","  configuration: --prefix=/usr --extra-version=0ubuntu0.2 --toolchain=hardened --libdir=/usr/lib/x86_64-linux-gnu --incdir=/usr/include/x86_64-linux-gnu --enable-gpl --disable-stripping --enable-avresample --enable-avisynth --enable-gnutls --enable-ladspa --enable-libass --enable-libbluray --enable-libbs2b --enable-libcaca --enable-libcdio --enable-libflite --enable-libfontconfig --enable-libfreetype --enable-libfribidi --enable-libgme --enable-libgsm --enable-libmp3lame --enable-libmysofa --enable-libopenjpeg --enable-libopenmpt --enable-libopus --enable-libpulse --enable-librubberband --enable-librsvg --enable-libshine --enable-libsnappy --enable-libsoxr --enable-libspeex --enable-libssh --enable-libtheora --enable-libtwolame --enable-libvorbis --enable-libvpx --enable-libwavpack --enable-libwebp --enable-libx265 --enable-libxml2 --enable-libxvid --enable-libzmq --enable-libzvbi --enable-omx --enable-openal --enable-opengl --enable-sdl2 --enable-libdc1394 --enable-libdrm --enable-libiec61883 --enable-chromaprint --enable-frei0r --enable-libopencv --enable-libx264 --enable-shared\n","  libavutil      55. 78.100 / 55. 78.100\n","  libavcodec     57.107.100 / 57.107.100\n","  libavformat    57. 83.100 / 57. 83.100\n","  libavdevice    57. 10.100 / 57. 10.100\n","  libavfilter     6.107.100 /  6.107.100\n","  libavresample   3.  7.  0 /  3.  7.  0\n","  libswscale      4.  8.100 /  4.  8.100\n","  libswresample   2.  9.100 /  2.  9.100\n","  libpostproc    54.  7.100 / 54.  7.100\n","\u001b[0;35m[mov,mp4,m4a,3gp,3g2,mj2 @ 0x559342dc6600] \u001b[0mAuto-inserting h264_mp4toannexb bitstream filter\n","\u001b[0;33mGuessed Channel Layout for Input Stream #0.1 : stereo\n","\u001b[0mInput #0, concat, from 'mylist.txt':\n","  Duration: N/A, start: 0.000000, bitrate: 47094 kb/s\n","    Stream #0:0(eng): Video: h264 (High) (avc1 / 0x31637661), yuv420p, 1920x1080, 45683 kb/s, 60 fps, 60 tbr, 60k tbn, 120k tbc\n","    Metadata:\n","      creation_time   : 2016-05-14T00:16:36.000000Z\n","      handler_name    : iCatch Alias Data Handler\n","      encoder         : iCatch AVCC\n","    Stream #0:1(eng): Audio: pcm_s16le (sowt / 0x74776F73), 44100 Hz, stereo, s16, 1411 kb/s\n","    Metadata:\n","      creation_time   : 2016-05-14T00:16:36.000000Z\n","      handler_name    : iCat Alias Data Handler\n","Output #0, mp4, to 'carrera_Burgueno.mp4':\n","  Metadata:\n","    encoder         : Lavf57.83.100\n","    Stream #0:0(eng): Video: h264 (High) (avc1 / 0x31637661), yuv420p, 1920x1080, q=2-31, 45683 kb/s, 60 fps, 60 tbr, 60k tbn, 60k tbc\n","    Metadata:\n","      creation_time   : 2016-05-14T00:16:36.000000Z\n","      handler_name    : iCatch Alias Data Handler\n","      encoder         : iCatch AVCC\n","    Stream #0:1(eng): Audio: pcm_s16le (sowt / 0x74776F73), 44100 Hz, stereo, s16, 1411 kb/s\n","    Metadata:\n","      creation_time   : 2016-05-14T00:16:36.000000Z\n","      handler_name    : iCat Alias Data Handler\n","Stream mapping:\n","  Stream #0:0 -> #0:0 (copy)\n","  Stream #0:1 -> #0:1 (copy)\n","Press [q] to stop, [?] for help\n","\u001b[0;35m[mov,mp4,m4a,3gp,3g2,mj2 @ 0x559342dc6600] \u001b[0mAuto-inserting h264_mp4toannexb bitstream filter\n","frame=48120 fps=712 q=-1.0 Lsize= 4564738kB time=00:13:21.96 bitrate=46628.3kbits/s speed=11.9x    \n","video:4425161kB audio:138123kB subtitle:0kB other streams:0kB global headers:0kB muxing overhead: 0.031877%\n"]}]}]}